<svg width="134" height="72" viewBox="0 0 134 72" fill="none" xmlns="http://www.w3.org/2000/svg">
<g id="Logo Reverse+space">
<g id="Logo Reverse">
<path id="Vector" d="M30.2388 55.0178C30.5353 55.0178 31.0584 54.9108 31.4769 54.2336C31.2328 53.6989 31.0759 52.6118 31.0584 52.2197C30.9364 50.2058 31.7036 48.3167 32.5232 48.2633C33.1336 48.2276 33.6219 48.8157 33.6742 49.7603C33.8311 52.2732 33.0115 53.3069 32.593 54.2158C32.6628 54.5722 33.2382 55.1603 33.7962 55.1603C34.3543 55.1603 34.2496 55.0534 34.302 54.9821C34.2671 54.8396 34.2148 54.6435 34.2148 54.3762C34.2148 52.9148 35.1215 51.7029 35.9237 51.7029C36.7259 51.7029 36.9177 52.5583 36.9177 53.1108C36.9177 53.6633 36.3771 54.3227 35.5575 54.8395C35.697 54.9821 35.9586 55.0891 36.1853 55.0891C37.3362 55.0891 37.9465 53.6633 38.3999 52.3445C38.4871 52.095 38.6266 51.7385 38.9057 51.7385C39.3939 51.7385 39.6032 55.0178 40.4053 55.0178C41.2075 55.0178 41.0331 54.2871 41.0331 53.7346C41.0331 53.1821 40.8936 53.2712 40.8936 52.6831C40.8936 52.095 41.2424 51.4534 41.7132 51.4534C42.184 51.4534 42.0969 51.7385 42.0969 52.095C42.0969 53.4138 41.1552 55.891 39.7776 55.891C38.3999 55.891 38.8185 54.0554 38.4523 54.0554C38.0861 54.0554 37.4757 55.9089 35.4703 55.9089C33.4649 55.9089 34.7902 55.7485 34.5112 55.4099C34.0229 55.7485 33.6219 55.891 33.151 55.891C32.4012 55.891 32.0699 55.1069 31.7734 55.1069C31.4769 55.1069 31.0061 55.9089 29.7854 55.9089C28.5648 55.9089 28.6519 54.59 28.3032 54.59C27.9544 54.59 27.5359 55.9089 27.0302 55.9089C26.1757 55.9089 26.0013 53.6098 25.234 53.6098C24.4668 53.6098 22.7927 55.9445 22.287 55.891C22.0777 55.8732 21.9905 55.7128 22.0254 55.5168C22.0603 55.2316 22.3044 54.4653 22.3916 54.091C22.5486 53.4673 22.7055 52.7722 22.7927 52.5405C22.8799 52.3267 23.1066 52.1663 23.281 52.1841C23.3682 52.1841 23.403 52.3623 23.4379 52.5049C23.5425 53.0217 23.682 53.5385 23.839 53.5385C24.118 53.5385 25.0597 51.6851 25.6177 51.6851C26.1757 51.6851 26.3675 54.59 27.2918 54.59C28.216 54.59 27.8149 54.2158 28.0242 53.7524C28.0416 52.9861 28.2509 51.8811 28.8612 51.8811C29.4715 51.8811 29.489 52.8613 29.1925 53.7168C29.1925 54.7326 29.8378 54.9821 30.2737 54.9821L30.2388 55.0178ZM46.4913 52.5227C46.2472 53.592 45.4799 55.1603 44.3464 55.1603C43.2129 55.1603 43.614 55.0534 43.614 54.7861C43.614 54.5188 45.4101 54.4475 45.4101 53.0574C45.4101 51.6672 44.9393 51.8098 44.2592 51.8098C43.5791 51.8098 42.4456 52.8257 42.4456 54.2336C42.4456 55.6415 43.2129 55.9089 43.9802 55.9089C45.3229 55.9089 46.1251 54.7861 46.5611 53.8593C46.7703 54.4831 46.8924 55.9089 47.3981 55.9089C47.9038 55.9089 47.7469 55.8019 47.991 55.2495C48.6013 53.8593 49.1942 52.2554 49.9964 52.2554C50.7986 52.2554 50.1185 52.8257 50.8509 52.8257C51.5833 52.8257 51.4438 52.5405 51.4438 52.2019C51.4438 51.7207 51.0252 51.3464 50.3626 51.3464C48.4618 51.3464 48.0433 54.2692 47.7469 54.2692C47.2411 54.2692 47.3981 51.9168 47.0319 51.9168C46.6657 51.9168 46.5436 52.3088 46.5087 52.5049L46.4913 52.5227ZM33.0115 50.3306C32.9766 49.7425 32.8371 49.493 32.5407 49.5108C32.1396 49.5286 31.9478 50.8296 32.035 52.2019C32.0873 53.093 32.2094 53.2356 32.3314 53.2178C32.5581 53.2178 33.0987 51.6138 33.0115 50.3306ZM29.7157 49.1187C29.6808 48.7801 29.4367 48.5662 29.0879 48.5662C28.7391 48.5662 28.3381 48.9761 28.3729 49.493C28.3904 49.8316 28.5996 50.1167 28.9833 50.1167C29.3669 50.1167 29.7506 49.5999 29.7157 49.1187ZM36.0283 53.3603C36.0283 53.0039 35.854 52.7187 35.6273 52.7187C35.4006 52.7187 35.0169 52.9326 35.0169 53.592C35.0169 54.2514 35.1913 54.3584 35.2785 54.4653C35.8714 54.2692 36.0283 53.7702 36.0283 53.3603ZM43.9627 52.6474C44.3813 52.6474 44.5033 53.1643 44.4161 53.4851C44.3115 53.7881 43.9453 54.1445 43.3873 54.2514C43.2652 53.9306 43.2129 52.6474 43.9802 52.6474H43.9627ZM20.578 51.1682C20.5257 50.9722 20.3513 50.5623 20.299 50.2415C20.1944 49.5464 20.5606 49.0831 20.8745 48.994C21.2407 48.887 21.3802 49.0831 21.5197 49.5108C21.6941 50.1702 21.729 51.0435 21.6592 52.291C21.572 54.0019 20.7524 56.0514 18.6773 55.998C16.8811 55.9623 16.0964 54.7683 16.0092 52.9682C15.9743 52.1128 16.0266 51.2752 16.3754 50.0633C16.5498 49.4217 16.7242 49.19 17.2822 49.0652C17.7356 48.9761 17.6833 49.4573 17.5961 50.0276C17.3694 51.2752 17.2648 51.8811 17.352 53.289C17.4391 54.7861 18.1018 55.3564 18.8342 55.3564C19.9328 55.3742 20.4211 54.4475 20.6129 53.093C20.7699 52.0059 20.6478 51.489 20.5606 51.1682H20.578Z" fill="white"/>
<g id="Group">
<path id="Vector_2" d="M44.5378 24.1823C44.6773 25.2338 46.2293 26.6417 46.6478 26.6061C46.9268 26.5883 47.0315 25.2338 47.0315 24.1823C47.0315 23.1308 47.0663 23.0952 46.7524 22.9883C46.2467 24.0219 44.9563 24.218 44.5378 24.1823ZM44.625 23.7189C45.741 23.7189 46.7699 22.81 46.7699 22.008C46.7699 21.2061 46.5955 21.3308 46.1595 21.2773C46.2293 21.3843 46.2642 21.4556 46.2642 21.6338C46.2642 22.2397 45.3574 22.917 44.3808 22.917C43.4043 22.917 43.91 23.1665 43.91 23.309C43.91 23.612 44.2065 23.7546 44.625 23.7546V23.7189ZM44.3808 22.4714C44.2239 22.4714 44.0146 22.4714 43.8926 22.2219C43.7879 22.0259 43.8228 21.7051 43.6484 21.5625C43.8228 21.616 44.0321 21.616 44.1716 21.616C44.6599 21.616 45.1133 21.2773 45.4795 21.2773C45.8457 21.2773 45.7933 21.4377 45.7933 21.5803C45.7933 22.0615 44.8342 22.4536 44.3808 22.4536V22.4714Z" fill="white"/>
<path id="Vector_3" d="M20.281 31.1206C20.6472 31.1206 20.5774 28.8394 21.1703 28.8394C21.7632 28.8394 21.3447 28.9819 21.3447 29.1601C21.3447 29.677 21.1006 30.4433 21.1006 30.8532C21.1006 31.2631 21.1529 31.1206 21.2575 31.1206C21.5191 31.1206 21.9725 28.5898 22.4084 28.5898C22.8444 28.5898 22.6177 28.7324 22.6177 28.875C22.6177 29.4097 21.955 30.9245 21.955 31.3522C21.955 31.78 21.9725 31.477 22.0248 31.477C22.2864 31.477 22.8269 30.2829 23.0013 29.6948C23.106 29.3918 23.228 29.2136 23.3501 29.2136C23.4722 29.2136 23.5593 29.3384 23.5593 29.5879C23.5593 30.176 23.0188 31.5839 22.5479 32.5107C22.1817 33.2414 21.6063 34.2929 21.6063 34.8632C21.6063 35.4335 21.6586 35.4691 22.0771 35.8434C21.3796 35.8077 21.1006 35.7364 20.8564 35.184C19.7055 37.5365 22.9839 37.3048 21.8504 39.3721C21.6411 38.9979 20.0368 38.6058 20.0368 36.4315C20.0368 34.2572 21.6586 33.4374 21.6586 32.6711C21.6586 31.9047 21.6063 32.3859 21.4668 32.2612C21.118 31.9582 21.1006 31.6909 20.8215 31.6909C20.5425 31.6909 20.3681 32.1721 20.6297 32.5998C20.7169 32.7424 20.7867 32.8315 20.7867 32.9562C20.7867 33.2592 20.3158 34.0968 19.9845 34.0968C19.6532 34.0968 19.3916 33.2414 19.3916 31.8869C19.3916 30.5324 19.6532 29.4453 20.0019 29.4453C20.3507 29.4453 20.124 29.5166 20.124 29.6057C20.124 29.7483 20.0891 30.0334 20.0891 30.5146C20.0891 30.9958 20.2112 31.0671 20.2984 31.0671L20.281 31.1206Z" fill="white"/>
<path id="Vector_4" d="M23.0363 34.3388C23.4897 34.3388 23.8733 34.0002 23.8733 33.2338V32.111C23.8733 31.6833 23.9082 31.2021 24.1872 30.8457C24.1523 30.9882 24.1523 31.1486 24.1523 31.2912C24.1523 32.2358 24.6755 32.8952 24.6755 33.8041C24.6755 34.713 24.5708 34.3388 24.3267 34.3388C24.0826 34.3388 24.1 34.1071 24.0477 34.1071C23.9954 34.1071 23.9431 34.2497 23.9431 34.4101C23.9431 34.6417 24.1 34.9982 24.5534 34.9982C25.0068 34.9982 25.2509 34.6417 25.2509 34.2318C25.2509 33.2338 24.5011 32.1467 24.5011 31.0774C24.5011 30.008 24.6231 30.311 24.7103 30.0615C24.7103 32.2536 26.5239 33.8576 26.5239 34.7665C26.5239 35.6754 26.367 35.1408 26.1403 35.1408C25.9136 35.1408 25.7741 34.9447 25.7741 34.7843C25.7741 34.6239 25.7741 34.6952 25.7392 34.6952C25.6694 34.6952 25.4776 34.9091 25.4776 35.1942C25.4776 35.4794 25.7741 35.9962 26.3147 35.9962C26.8552 35.9962 27.2563 35.4616 27.2563 34.9982C27.2563 33.8398 25.0417 32.0932 25.0417 30.2219C25.0417 28.3506 25.094 29.3843 25.3207 28.9922C23.8907 29.9368 23.4548 31.1665 23.4548 32.2714C23.4548 33.3764 23.4199 33.6972 22.9491 33.6972C22.4782 33.6972 22.6352 33.4655 22.548 33.4655C22.4608 33.4655 22.4434 33.6615 22.4434 33.715C22.4434 34.1249 22.7398 34.3566 23.0188 34.3566L23.0363 34.3388Z" fill="white"/>
<path id="Vector_5" d="M41.713 23.353C42.1838 23.353 42.55 23.1391 42.55 22.9966C42.55 22.854 42.4803 22.9253 42.3408 22.9253C42.2013 22.9253 41.9222 22.9253 41.3991 22.8183C40.9457 22.747 40.5969 22.5688 40.4749 22.5688C40.3528 22.5688 40.4051 22.5867 40.4051 22.6223C40.4051 22.9074 40.9283 23.353 41.7304 23.353H41.713ZM39.3588 21.9451C39.4983 21.856 40.1087 21.9985 40.8934 21.6064C40.998 21.553 41.0852 21.5352 41.1724 21.5352C41.556 21.5352 41.4514 21.9807 41.8002 21.9807C42.1489 21.9807 42.4105 21.749 42.6198 21.749C42.9337 21.749 43.4045 22.7827 43.4045 23.2639C43.4045 23.7451 42.5849 24.1728 41.5909 24.1728C40.161 24.1728 39.2891 22.8896 39.2891 22.0698C39.2891 21.25 39.3239 21.9807 39.3588 21.9629V21.9451Z" fill="white"/>
<path id="Vector_6" d="M23.2631 38.4897C22.9143 38.5788 22.3389 39.1492 22.3389 40.0581C22.3389 40.967 23.4724 42.8026 25.3382 42.8026C27.2041 42.8026 27.2913 41.6977 27.2913 40.9313C27.2913 39.2739 26.2799 38.0977 24.9895 38.0977C23.6991 38.0977 23.6467 38.6323 23.6467 39.4165C23.6467 40.2006 24.1873 41.2343 25.4603 41.2343C26.7333 41.2343 26.4194 40.7888 26.4194 40.2898C26.4194 39.7907 25.9835 39.1135 25.3382 39.1135C24.693 39.1135 25.0069 39.2383 25.0069 39.4521C25.0069 39.666 25.3557 39.9868 25.8091 39.9868C26.2625 39.9868 26.0009 39.969 26.0532 39.9511C26.0707 39.9868 26.0881 40.0402 26.0881 40.0759C26.0881 40.3254 25.844 40.4858 25.4778 40.4858C24.9197 40.4858 24.3966 40.0581 24.3966 39.3987C24.3966 38.7392 24.7279 38.7214 25.2162 38.7214C26.1753 38.7214 26.7507 39.5947 26.7507 40.468C26.7507 41.3413 26.3322 41.6977 25.4603 41.6977C23.7339 41.6977 22.8969 40.1115 23.2805 38.5076L23.2631 38.4897Z" fill="white"/>
<path id="Vector_7" d="M34.7198 42.7485C34.7198 42.998 34.9117 43.1941 35.1558 43.1941C35.3999 43.1941 35.5917 42.998 35.5917 42.7485C35.5917 42.499 35.3999 42.303 35.1558 42.303C34.9117 42.303 34.7198 42.499 34.7198 42.7485ZM35.5569 44.9584C36.08 44.9584 36.0451 44.9228 36.2021 44.9228C36.359 44.9228 36.3765 45.0297 36.3765 45.0832C36.3765 45.3327 35.8533 45.6178 34.9117 45.6178C33.97 45.6178 34.0223 45.3149 33.9351 44.9941C33.3945 45.3505 32.5749 45.6713 31.7728 45.6713C29.5581 45.6713 29.0001 44.6911 28.32 44.3703C27.7968 44.1208 26.9772 44.602 25.8438 43.3188C26.0007 43.3544 26.1925 43.3544 26.3669 43.3544C27.3609 43.3544 27.884 42.8554 27.884 42.0713C27.884 41.2871 27.884 41.8574 27.8666 41.7683C28.163 41.893 28.8606 42.4099 29.0175 43.3544C29.035 43.4614 29.4883 43.5683 29.7674 43.5683C30.0464 43.5683 30.6567 43.4079 30.7265 42.7485C32.0169 42.6416 32.8888 41.8574 33.0806 40.8594C33.5515 41.0198 34.0746 41.4475 34.1967 41.6614C34.3711 41.5901 34.5978 41.5544 34.8419 41.5544C35.086 41.5544 35.5743 41.6257 36.0451 41.7683C36.0626 41.6257 36.08 41.4475 36.3067 41.4475C36.6206 41.4475 36.5508 41.8039 36.6555 42.0178C36.7078 42.1247 36.9868 42.196 36.9868 42.4099C36.9868 42.6237 36.8124 42.695 36.7078 42.695C36.6032 42.695 36.6032 42.695 36.5857 42.6772C36.3765 42.7485 36.359 44.3347 35.4522 44.3347C34.5454 44.3347 34.1618 43.7644 33.9002 43.0693C33.8305 42.8554 33.6561 42.7307 33.5166 42.7307C33.3771 42.7307 33.255 42.7663 33.0458 42.998C32.4703 43.6396 31.4938 44.2099 30.2905 44.2099C29.0873 44.2099 29.6279 44.1743 29.5581 44.1743C29.4883 44.1743 29.5232 44.1743 29.5232 44.1921C29.5232 44.2634 29.8894 44.5663 30.6916 44.5663C32.5924 44.5663 33.0458 43.4792 33.3596 43.4792C33.6735 43.4792 33.534 43.4792 33.6038 43.6574C34.0397 44.7089 35.0163 44.9584 35.6092 44.9584H35.5569Z" fill="white"/>
<path id="Vector_8" d="M42.0963 37.9258C41.8696 37.9258 40.614 39.6367 39.8119 39.6367C39.0097 39.6367 39.4631 39.2624 39.4631 38.9773C39.4631 38.6921 39.5677 38.7099 39.8991 38.6386C41.7475 38.2109 41.3464 36.7852 42.9333 36.7852C44.5202 36.7852 44.7818 37.3911 44.7818 38.7634C44.7818 40.1357 42.7589 42.0248 42.4625 42.0248C42.166 42.0248 41.9393 41.6684 41.9393 41.4189C41.9393 41.1694 41.9742 41.2406 42.1835 41.1515C43.2123 40.7238 43.8052 39.7614 43.8052 39.2624C43.8052 38.7634 43.7529 39.0485 43.6134 39.0485C43.4739 39.0485 42.6543 40.8842 41.765 40.8842C40.8756 40.8842 40.5443 40.3139 40.5443 40.0644C40.5443 39.6188 42.2881 38.799 42.2881 38.1931C42.2881 37.5871 42.1835 37.9436 42.0963 37.9436V37.9258ZM43.2646 37.2485C43.1077 37.2485 42.9508 37.3733 42.9508 37.6763C42.9508 37.9792 43.1949 38.2109 43.3344 38.2822C43.4042 38.3178 43.5262 38.3713 43.6483 38.3713C43.9622 38.3713 44.2063 38.2822 44.2063 38.0149C44.2063 37.7475 43.718 37.2485 43.2646 37.2485Z" fill="white"/>
<path id="Vector_9" d="M23.1235 24.4914C23.1235 24.7409 23.3153 24.9369 23.5595 24.9369C23.8036 24.9369 23.9954 24.7409 23.9954 24.4914C23.9954 24.2419 23.8036 24.0458 23.5595 24.0458C23.3153 24.0458 23.1235 24.2419 23.1235 24.4914ZM22.5655 23.4934C22.5655 23.7429 22.7573 23.9389 23.0015 23.9389C23.2456 23.9389 23.4374 23.7429 23.4374 23.4934C23.4374 23.2439 23.2456 23.0478 23.0015 23.0478C22.7573 23.0478 22.5655 23.2439 22.5655 23.4934ZM22.1819 26.5053C21.9377 26.5766 21.4146 26.8795 21.4146 27.432C21.4146 27.9845 21.711 28.0914 22.0947 28.0914C22.4783 28.0914 22.426 28.038 22.5132 27.9845C22.2167 27.6815 22.1121 27.3607 22.1121 27.0221C22.1121 26.6835 22.147 26.6479 22.1819 26.5231V26.5053ZM19.5487 26.6657C19.5487 26.7191 19.5487 26.7726 19.5487 26.8261C19.5487 27.3429 19.8103 27.6281 20.1765 27.6281C20.5427 27.6281 20.7519 27.4677 21.0309 27.0934C20.9089 27.1112 20.7694 27.129 20.6473 27.129C20.2462 27.129 19.8103 27.0221 19.5661 26.6479L19.5487 26.6657ZM19.165 27.6459C19.165 28.4835 19.4092 28.8756 19.8626 28.8756C20.316 28.8756 20.6647 28.6261 21.2228 28.1449C20.8042 28.2518 20.4729 28.3053 20.1939 28.3053C19.9149 28.3053 19.4964 28.1449 19.1825 27.6459H19.165ZM21.9552 23.2439C22.0075 23.0656 22.0598 22.8518 22.0598 22.6023C22.0598 22.0676 21.8157 21.2656 21.0832 21.2656C20.3508 21.2656 20.3683 21.6042 20.3683 22.0141C20.3683 22.8874 21.2228 23.2439 21.9726 23.2439H21.9552ZM21.0309 26.0241C20.6822 26.0241 20.2811 25.5785 20.2811 25.1686C20.2811 24.7587 20.438 24.6696 20.5601 24.6696C20.6822 24.6696 20.6299 24.7053 20.6299 24.7765C20.6996 25.3112 21.0484 25.632 21.3623 25.7746C21.3971 25.7924 21.4146 25.8102 21.4146 25.828C21.4146 25.8993 21.2053 26.0063 21.0135 26.0063L21.0309 26.0241ZM22.0249 24.6874C22.0947 24.7944 22.3039 24.9191 22.3039 24.9904C22.3039 25.1508 22.2167 25.3469 22.0424 25.3469C21.6587 25.3469 21.3623 24.7587 21.3623 24.4379C21.3623 24.1171 21.4843 24.2062 21.6413 24.2062C21.7982 24.2062 21.7459 24.2062 21.7982 24.2419C21.9028 24.2954 21.9028 24.5092 22.0075 24.6874H22.0249ZM19.4964 26.0597C19.4789 26.0954 19.4615 26.131 19.4615 26.1845C19.4615 26.2914 19.5661 26.3983 19.6707 26.3983C19.7754 26.3983 19.8103 26.3805 19.8626 26.3805C20.1241 26.3805 20.4032 26.5587 20.8391 26.5587C21.2751 26.5587 21.3797 26.4875 21.7459 26.2914C22.5306 25.8993 22.8271 24.9191 22.8271 24.7409C22.8271 24.5627 22.6701 24.5627 22.5306 24.3666C22.3911 24.1706 22.4434 24.0102 22.3562 23.9211C22.3039 23.8676 22.147 23.8676 21.9552 23.8498C21.8854 23.8498 21.7982 23.8498 21.711 23.8498C21.3623 23.8498 20.9263 23.9033 20.4555 24.2062C19.5138 24.8122 19.6533 25.828 19.5138 26.0775L19.4964 26.0597ZM23.0712 25.6142C22.8271 25.8993 22.5829 26.3805 22.5829 26.8795C22.5829 27.3786 22.9317 27.9667 23.4897 27.9667C24.0478 27.9667 24.257 27.5033 24.257 27.0221C24.257 26.2914 23.5944 25.7746 23.0538 25.5964L23.0712 25.6142ZM20.7694 23.4934C20.7694 23.4934 20.4555 23.7429 20.0718 23.7429C19.6882 23.7429 19.2348 23.3864 19.2348 22.8874C19.2348 22.3884 19.4092 22.1924 19.8103 22.0141C19.8103 22.0854 19.8103 22.1389 19.8103 22.1924C19.8103 22.8161 20.159 23.2973 20.7868 23.4755L20.7694 23.4934Z" fill="white"/>
<path id="Vector_10" d="M39.7772 27.1364C39.7772 27.3859 39.9865 27.5998 40.2306 27.5998C40.4747 27.5998 40.684 27.3859 40.684 27.1364C40.684 26.8869 40.4747 26.6731 40.2306 26.6731C39.9865 26.6731 39.7772 26.8869 39.7772 27.1364ZM39.8121 28.5265C39.8121 28.8117 40.0388 29.0434 40.3178 29.0434C40.5968 29.0434 40.8235 28.8117 40.8235 28.5265C40.8235 28.2414 40.5968 28.0097 40.3178 28.0097C40.0388 28.0097 39.8121 28.2414 39.8121 28.5265ZM38.2601 29.4711C38.2601 29.881 38.5914 30.2374 39.0099 30.2374C39.4284 30.2374 39.7598 29.8988 39.7598 29.4711C39.7598 29.0434 39.4284 28.7048 39.0099 28.7048C38.5914 28.7048 38.2601 29.0434 38.2601 29.4711ZM38.6611 27.9206C38.6611 28.1701 38.853 28.3661 39.0971 28.3661C39.3412 28.3661 39.5331 28.1701 39.5331 27.9206C39.5331 27.6711 39.3412 27.475 39.0971 27.475C38.853 27.475 38.6611 27.6711 38.6611 27.9206ZM37.2486 28.8117C37.2486 29.0612 37.4405 29.2572 37.6846 29.2572C37.9287 29.2572 38.1206 29.0612 38.1206 28.8117C38.1206 28.5622 37.9287 28.3661 37.6846 28.3661C37.4405 28.3661 37.2486 28.5622 37.2486 28.8117ZM38.3647 26.2275C38.3647 26.6196 38.6786 26.9404 39.0622 26.9404C39.4459 26.9404 39.7598 26.6196 39.7598 26.2275C39.7598 25.8354 39.4459 25.5146 39.0622 25.5146C38.6786 25.5146 38.3647 25.8354 38.3647 26.2275ZM39.1669 24.873C39.1669 25.1047 39.3412 25.3008 39.5854 25.3008C39.8295 25.3008 40.0039 25.1047 40.0039 24.873C40.0039 24.6414 39.8121 24.4453 39.5854 24.4453C39.3587 24.4453 39.1669 24.6414 39.1669 24.873ZM37.2138 25.9245C37.2138 26.1562 37.3882 26.3523 37.6149 26.3523C37.8415 26.3523 38.0334 26.174 38.0334 25.9245C38.0334 25.675 37.8415 25.5146 37.6149 25.5146C37.3882 25.5146 37.2138 25.6928 37.2138 25.9245ZM37.1615 27.3503C37.1615 27.7246 37.4579 28.0275 37.8241 28.0275C38.1903 28.0275 38.4868 27.7246 38.4868 27.3503C38.4868 26.976 38.1903 26.6731 37.8241 26.6731C37.4579 26.6731 37.1615 26.976 37.1615 27.3503ZM35.8013 28.0632C35.8013 28.4018 36.0803 28.6869 36.4116 28.6869C36.7429 28.6869 37.0219 28.4018 37.0219 28.0632C37.0219 27.7245 36.7429 27.4394 36.4116 27.4394C36.0803 27.4394 35.8013 27.7245 35.8013 28.0632ZM36.1675 26.5127C36.1675 26.7622 36.3593 26.9582 36.6034 26.9582C36.8476 26.9582 37.0394 26.7622 37.0394 26.5127C37.0394 26.2632 36.8476 26.0671 36.6034 26.0671C36.3593 26.0671 36.1675 26.2632 36.1675 26.5127ZM39.9516 29.8988C39.9516 29.685 40.1434 29.4889 40.3527 29.4889C40.5619 29.4889 40.7712 29.6671 40.7712 29.8988C40.7712 30.1305 40.5794 30.3266 40.3527 30.3266C40.126 30.3266 39.9516 30.1483 39.9516 29.8988Z" fill="white"/>
<path id="Vector_11" d="M40.2132 42.5744C40.2656 42.5744 40.3353 42.6101 40.3353 42.8061C40.3353 43.0022 40.2307 43.3764 39.847 43.6259C39.568 43.822 39.2018 43.9645 38.6787 43.9824C38.7659 43.715 38.8356 43.4477 38.8356 43.1804C38.8356 42.913 38.8356 43.02 38.8182 42.9309H38.9577C39.8122 42.9309 40.1784 42.5922 40.2307 42.5922L40.2132 42.5744ZM40.3004 41.4873C40.3876 41.416 40.4051 41.2912 40.4051 41.1665V40.917C40.4051 40.5962 39.9342 40.418 39.289 40.418C38.6438 40.418 38.0858 40.7744 38.0858 40.9348V41.4338C38.0858 41.6477 38.5566 41.8615 39.1495 41.8615C39.7424 41.8615 40.0389 41.7368 40.3179 41.5051L40.3004 41.4873ZM40.8585 41.612C40.5794 41.8259 39.9168 42.3249 38.8356 42.3249C37.7544 42.3249 37.9986 42.1289 37.9114 42.1289C37.8242 42.1289 37.6847 42.2358 37.5626 42.3784C37.3011 42.6814 36.9697 43.2695 36.9697 43.8932C36.9697 44.517 37.3011 44.7665 37.9288 44.7665C39.9517 44.7665 41.4514 43.4833 41.4514 42.4318C41.4514 41.3804 41.1026 41.5942 40.8585 41.5942V41.612Z" fill="white"/>
<path id="Vector_12" d="M41.2424 32.3434C41.2424 32.6108 41.3295 32.9316 41.5911 32.9316C41.8527 32.9316 42.0096 32.5751 42.0096 32.2009C42.0096 31.8266 41.9399 31.4167 41.9399 31.2385C41.9399 31.0603 41.9748 31.1316 42.0096 31.1316C42.1666 31.1316 42.3235 31.5949 42.4979 31.5949C42.6723 31.5949 42.9862 31.2385 43.0908 31.2385C43.1954 31.2385 43.1257 31.2741 43.1257 31.292C43.1257 31.4524 42.8815 31.8266 42.8815 31.9692C42.8815 32.1118 43.5093 32.1118 43.5093 32.2187C43.5093 32.3791 42.8467 32.3791 42.5328 32.5217C42.2363 32.6464 42.0445 32.8246 42.0445 33.0385C42.0445 33.2524 42.2538 33.3058 42.5677 33.3058C43.2826 33.3058 43.7883 32.9137 43.9627 32.9137C44.1371 32.9137 44.015 32.9316 44.015 32.9672C44.015 33.0741 43.6488 33.4484 43.6488 33.6088C43.6488 33.7692 44.3115 34.0187 44.3115 34.1256C44.3115 34.1613 44.2592 34.1613 44.1894 34.1613C44.0674 34.1613 43.893 34.1256 43.7535 34.1256C43.614 34.1256 43.5965 34.1256 43.5616 34.1791C43.4919 34.2682 43.5791 34.8563 43.4396 34.8563C43.3001 34.8563 42.9339 33.5553 42.0968 33.5553C41.2598 33.5553 41.8876 33.6623 41.8876 33.8227C41.8876 34.2682 42.3061 34.7672 42.7072 35.0167C42.8815 35.1415 43.1954 35.2662 43.1954 35.3197C43.1954 35.4445 42.5153 35.3197 42.5153 35.5514C42.5153 35.7831 42.6025 36.0504 42.6025 36.2286C42.6025 36.4069 42.6025 36.3534 42.5328 36.3534C42.4107 36.3534 42.0968 35.7474 41.9399 35.7474C41.7829 35.7474 41.5388 36.1039 41.4167 36.1039C41.2947 36.1039 41.3644 36.0682 41.3644 36.0326C41.3644 35.7831 41.7655 35.2128 41.7655 34.6425C41.7655 34.0722 41.7306 33.8048 41.4167 33.8048C41.1028 33.8048 40.8587 34.2148 40.7366 34.6425C40.6669 34.892 40.7192 35.8187 40.5448 35.8187C40.3704 35.8187 40.4228 35.195 40.2135 35.195C40.0042 35.195 39.7078 35.4979 39.5857 35.4979C39.4636 35.4979 39.5508 35.4979 39.5508 35.4623C39.5508 35.3375 39.8647 34.892 39.8647 34.8207C39.8647 34.6603 39.1498 34.6425 39.1498 34.4999C39.1498 34.3573 39.4288 34.3751 39.6903 34.3217C40.2309 34.2326 41.0505 33.8227 41.0505 33.2524C41.0505 32.6821 40.4402 32.3434 40.0566 32.0761C39.8473 31.9514 39.6206 31.8266 39.6206 31.7375C39.6206 31.6484 39.8822 31.6484 39.9868 31.6484C40.1437 31.6484 40.3007 31.6484 40.3007 31.5058C40.3007 31.3632 40.2832 31.2028 40.2832 31.0603C40.2832 30.9177 40.2832 30.8642 40.3356 30.8642C40.4925 30.8642 40.7192 31.3989 40.8238 31.3989C40.9982 31.3989 41.2424 30.9533 41.3993 30.9533C41.5562 30.9533 41.469 30.989 41.469 31.0781C41.469 31.488 41.2598 31.9514 41.2598 32.3434H41.2424ZM36.0981 29.1177C36.2201 30.0444 37.4408 29.581 37.4408 30.7216C37.4408 31.8623 37.4059 31.1316 37.4059 31.3454C37.4059 31.5593 37.4234 31.791 37.6152 31.791C37.807 31.791 37.8419 31.6662 37.8419 31.488C37.8419 31.3098 37.807 31.0959 37.807 30.9712C37.807 30.5791 38.0686 30.49 38.243 30.49C38.644 30.49 38.9579 30.9177 39.5857 30.9177C39.4462 31.6306 38.0163 31.4345 38.0163 32.2009C38.0163 32.9672 38.3999 32.6821 38.644 32.6821C38.8882 32.6821 38.9405 32.6464 38.9405 32.4504C38.9405 32.2543 38.9231 32.2187 38.9231 32.1474C38.9231 32.0761 38.9579 32.0583 39.0103 32.0583C39.2544 32.0583 40.4053 32.9672 40.4053 33.2345C40.4053 33.5019 39.1846 33.7336 38.8184 33.7336C38.4522 33.7336 38.6964 33.6623 38.6964 33.6088C38.6964 33.5375 38.8707 33.3058 38.8707 33.1633C38.8707 33.0207 38.7138 33.0029 38.2778 33.0029C37.8419 33.0029 37.9291 33.0207 37.9291 33.1811C37.9291 33.4841 38.3999 33.8405 38.3999 34.1078C38.3999 34.3751 38.2778 34.4643 37.9291 34.4643C37.5803 34.4643 37.1967 34.2326 37.1967 33.8405C37.1967 33.4484 37.5106 33.2167 37.5106 33.0385C37.5106 32.8603 37.4757 32.8959 37.3362 32.8959C36.9351 32.8959 36.8305 33.9831 35.418 34.09C35.6447 33.8761 35.8365 33.6444 35.8365 33.1811C35.8365 32.7177 35.7842 32.7534 35.7842 32.5038C35.7842 32.2543 35.9411 32.0048 36.1504 32.0048C36.5515 32.0048 36.7433 32.5751 37.0049 32.5751C37.2664 32.5751 37.3013 32.4504 37.3013 32.2365C37.3013 31.3989 35.7319 31.5236 35.7319 30.3474C35.7319 29.1711 35.8365 29.6345 36.1329 29.082L36.0981 29.1177Z" fill="white"/>
<path id="Vector_13" d="M38.1554 36.2656C38.1554 36.426 38.26 36.5329 38.417 36.5329C38.5739 36.5329 38.696 36.3725 38.696 36.1943C38.696 36.0161 38.4867 35.6418 38.2949 35.6418C38.1031 35.6418 38.2426 35.7666 38.2251 35.9092C38.2251 36.0161 38.1554 36.1587 38.1554 36.2478V36.2656ZM37.5974 34.8042C38.7308 35.0181 39.3412 35.8913 39.3412 36.7111C39.3412 37.531 38.9924 37.7805 38.3995 37.7805C37.8066 37.7805 37.4579 37.3884 37.4579 36.7824C37.4579 36.1765 37.8066 35.8379 37.8066 35.3567C37.8066 34.8755 37.7543 34.9824 37.5974 34.8042ZM36.1674 36.6755C36.2721 36.7824 36.3069 36.8894 36.3069 37.0141C36.3069 37.1745 36.2372 37.3527 36.2372 37.5488C36.2372 37.7448 36.429 38.0478 36.708 38.0478C36.987 38.0478 37.2137 37.7983 37.2137 37.5131C37.2137 37.0854 36.7952 36.6933 36.1674 36.6933V36.6755ZM39.7423 35.9626C39.812 36.0874 39.8469 36.2121 39.8469 36.3191C39.8469 36.622 39.6376 36.9072 39.6376 37.228C39.6376 37.5488 39.8992 37.8874 40.3177 37.8874C40.7362 37.8874 41.0676 37.531 41.0676 37.0854C41.0676 36.6399 40.5444 35.9983 39.7423 35.9448V35.9626ZM36.429 35.3745C36.9173 35.4458 37.0393 35.624 37.0393 35.7666C37.0393 36.0161 36.8301 36.0874 36.6208 36.0874C36.4116 36.0874 36.3069 36.0517 36.1151 36.0517C35.9233 36.0517 35.6443 36.1052 35.4525 36.3369C35.592 36.3547 35.8012 36.4616 35.8012 36.6755C35.8012 37.3171 34.0574 36.7824 34.0574 38.422C34.0574 40.0617 34.9467 40.2399 36.272 40.2399C37.5974 40.2399 37.4055 40.0082 37.4055 39.7409C37.4055 39.4735 37.0393 39.6696 37.0393 39.4914C37.0393 39.3131 37.1614 39.2775 37.1614 39.1527C37.1614 39.028 37.1265 38.9924 37.0393 38.9924C36.8475 38.9924 36.4813 39.3131 35.7315 39.3131C34.9816 39.3131 34.5805 38.9745 34.5805 38.5112C34.5805 38.0478 34.6154 38.3508 34.6852 38.3508C34.7549 38.3508 34.8421 38.4042 34.9119 38.4042C34.9816 38.4042 34.9816 38.3508 34.9816 38.2438C34.9816 38.1369 34.9816 37.7805 35.1909 37.7805C35.4001 37.7805 35.7838 38.5468 37.266 38.5468C38.7483 38.5468 38.7134 38.4399 39.0796 38.1191C39.0796 39.331 38.1379 40.9349 36.2023 40.9349C34.2666 40.9349 33.1157 39.2775 33.1157 37.7626C33.1157 36.2478 34.4585 34.5547 36.3069 34.5547C38.1554 34.5547 37.1788 34.7151 37.1788 34.9289C37.1788 35.1428 36.4813 35.0359 36.429 35.3745Z" fill="white"/>
<path id="Vector_14" d="M29.4359 22.8208C30.1508 22.8208 30.4647 23.4446 30.4647 24.1574C30.4647 24.8703 30.3775 24.9238 30.238 24.9238C30.0985 24.9238 30.116 24.6743 30.0985 24.4426C30.0811 24.1396 30.0288 24.0861 29.9241 24.0861C29.7498 24.0861 29.6277 24.5317 29.6277 24.9416C29.6277 25.3515 29.6626 25.4763 29.8718 25.4763C30.0811 25.4763 30.0811 25.4228 30.1508 25.3515C30.116 25.8505 29.7323 26.2961 29.2266 26.2961C28.2849 26.2961 27.9187 25.1555 27.8141 24.496C27.2386 25.1198 26.7155 25.5654 25.7738 25.5654C24.8322 25.5654 24.4834 24.906 24.4834 24.2822C24.4834 23.6584 24.5532 23.6049 24.7798 23.6049C25.0065 23.6049 24.8147 24.5139 25.3379 24.5139C25.861 24.5139 25.7041 24.4069 25.8261 24.0327C25.8959 23.8188 25.9482 23.5871 25.9482 23.3911C25.9482 23.0881 25.8785 22.9099 25.6692 22.9099C25.4599 22.9099 25.2681 23.0525 25.1809 23.1238C25.4425 22.3396 26.0703 21.9297 26.7504 21.9297C27.4305 21.9297 28.0582 22.696 28.0582 23.5515C28.0582 24.4069 28.0582 23.801 28.0234 23.9257C28.3896 23.302 28.8953 22.8386 29.4533 22.8386L29.4359 22.8208ZM28.5988 24.1218C28.5988 23.9257 28.5465 23.8901 28.5116 23.8901C28.407 23.8901 28.2849 24.0149 28.1106 24.3178C28.128 24.7099 28.1978 24.8881 28.3024 24.8881C28.407 24.8881 28.5988 24.496 28.5988 24.1218ZM27.1166 24.5673C27.2386 24.5673 27.3956 24.4426 27.6746 24.1218C27.692 23.9792 27.692 23.8545 27.692 23.6762C27.692 23.498 27.6048 23.2129 27.4828 23.2129C27.1515 23.2129 26.9945 24.0861 26.9945 24.3178C26.9945 24.5495 27.0643 24.5673 27.1166 24.5673ZM28.8778 25.5475C29.1394 25.5475 29.4533 24.496 29.4533 23.8366C29.4533 23.1772 29.4359 23.5337 29.3661 23.5337C29.1394 23.5337 28.7558 24.6208 28.7558 25.2089C28.7558 25.797 28.8081 25.5475 28.8778 25.5475ZM26.2447 24.9416C26.6109 24.9416 27.0294 22.9099 27.0294 22.5713C27.0294 22.2327 26.9945 22.4109 26.9248 22.4109C26.5934 22.4109 26.1226 24.3356 26.1226 24.7634C26.1226 25.1911 26.14 24.9238 26.2447 24.9238V24.9416Z" fill="white"/>
<path id="Vector_15" d="M27.4305 25.7527C26.9596 25.7527 26.9422 26.323 26.9422 27.4814C26.5934 26.7151 26.0354 25.9131 25.3553 25.9131C24.6752 25.9131 24.7275 26.2161 24.7275 26.7685C24.7275 27.321 24.7275 27.0537 24.7624 27.1428C24.8147 26.9646 24.9891 26.8755 25.1984 26.8755C25.6692 26.8755 26.2272 27.2319 26.5934 27.7309C26.1749 27.6596 25.7564 27.5705 25.4251 27.5705C25.0937 27.5705 25.0065 27.5883 24.8496 27.6775C24.5357 27.82 24.1172 28.3012 24.1172 29.0141C24.1172 29.727 24.1172 29.2458 24.1521 29.3705C24.5357 28.5151 25.5297 28.123 26.1749 28.123C26.8201 28.123 26.4016 28.123 26.4714 28.1408C26.14 28.4438 26.0703 28.9963 26.0354 29.3527C26.0354 29.5309 25.9656 29.5488 25.8436 29.5488C25.8436 29.9052 26.1226 30.4577 26.1226 30.725C26.1226 30.9923 26.0703 30.921 26.018 30.9389C26.018 31.4201 26.4888 31.7765 26.4888 32.0795C26.4888 32.3824 26.4714 32.2221 26.4365 32.2577C26.4714 32.4537 26.9945 32.7924 27.0643 32.9527C27.1514 33.1488 27.2386 33.1844 27.291 33.1844C27.4828 33.1844 27.7618 32.9706 27.7618 32.7567C27.7618 32.5428 27.7095 32.6141 27.6572 32.5785C27.4479 32.4181 27.3433 32.0973 27.2561 31.8656C27.1863 31.8656 27.0817 31.83 27.0468 31.7052C26.9945 31.4735 26.9771 31.0458 26.8899 30.7963C26.7504 30.7607 26.6806 30.7072 26.6806 30.4042C26.6806 30.1012 26.7678 29.6913 26.7678 29.4953C26.6981 29.4953 26.6109 29.4596 26.6109 29.3171C26.6109 28.9606 26.9596 28.6933 27.0468 28.2299C27.6572 28.6933 27.8141 29.1745 27.8141 29.5844C27.8141 29.9943 27.7792 30.0121 27.7443 30.2082C28.1977 29.9765 28.8778 29.6379 28.8778 28.9428C28.8778 28.2478 28.686 28.0874 27.4828 27.9091C27.8664 27.7666 28.3372 27.6953 28.7383 27.6953C29.4184 27.6953 29.8195 27.9091 29.9067 28.4082C30.0462 28.1943 30.1508 27.927 30.1508 27.6953C30.1508 27.1606 29.7149 26.8042 29.1394 26.8042C28.5639 26.8042 27.9013 27.1606 27.2735 27.5883C27.5525 27.0002 27.7443 26.6438 28.0931 26.6438C28.4419 26.6438 28.1977 26.6438 28.2501 26.6616C28.128 26.1804 27.6397 25.6992 27.3781 25.6992L27.4305 25.7527Z" fill="white"/>
<path id="Vector_16" d="M45.5839 33.7188C46.1245 33.7188 46.5605 34.4316 46.5605 35.2693C46.5605 36.1069 46.1594 37.1227 45.427 37.7822C45.427 36.3029 43.6309 36.7663 43.6309 35.697C43.6309 34.6277 43.9622 34.9306 44.3458 34.9306C44.7295 34.9306 44.9562 35.0198 45.148 35.2336C44.9562 35.0554 44.8515 34.7881 44.8515 34.5207C44.8515 34.1108 45.1131 33.7188 45.5839 33.7188Z" fill="white"/>
<path id="Vector_17" d="M37.5971 22.4494C37.5099 22.3069 37.196 22.2356 37.039 22.2356C36.5682 22.2356 36.2369 22.5742 36.1846 22.8772C36.1497 22.7702 36.1148 22.6277 36.1148 22.5029C36.1148 22.0217 36.4461 21.4336 37.2309 21.4336C38.0156 21.4336 38.19 21.8079 38.2772 21.8079C38.3643 21.8079 38.4864 21.7009 38.5736 21.7009C38.6608 21.7009 38.6957 21.897 38.6957 22.0217C38.6957 22.4673 38.5038 23.2158 38.0156 23.5009C37.9284 23.3227 37.754 23.1089 37.475 22.9663C37.4052 22.9306 37.3704 22.8593 37.3704 22.8059C37.3704 22.6811 37.475 22.5386 37.5971 22.4673V22.4494ZM35.9753 23.2514C36.2543 23.5366 36.4984 23.6435 36.8123 23.6435C37.1262 23.6435 37.0739 23.6079 37.1437 23.6079C37.2134 23.6079 37.3006 23.6435 37.3006 23.7326C37.3006 23.8574 37.196 24.0534 37.0565 24.1604C37.1785 24.2138 37.318 24.2316 37.475 24.2316C38.0853 24.2316 38.7829 23.8396 38.7829 22.8415C38.9224 23.0197 38.9921 23.3762 38.9921 23.5544C38.9921 24.7485 38.1202 25.2118 37.3355 25.2118C36.5508 25.2118 36.5508 25.0336 36.4984 25.0336C36.2892 25.0336 36.3066 25.4435 36.1671 25.4435C35.923 25.4079 35.6963 24.8376 35.6963 24.2495C35.6963 23.6613 35.7835 23.5188 35.9753 23.2514Z" fill="white"/>
<path id="Vector_18" d="M26.7328 16.2495C26.7328 16.1782 26.4014 16.1069 25.9655 16.1069C25.268 16.1069 25.3551 16.6951 24.8146 16.6951C24.274 16.6951 24.396 16.0713 23.6811 16.0713C22.9661 16.0713 22.844 16.1426 22.844 16.2495C22.844 16.3564 23.3497 16.3208 23.3497 16.6951C23.3497 17.0693 22.2686 17.1941 22.2686 17.4258C22.2686 17.6574 22.3558 17.5327 22.4604 17.5327C22.7045 17.5327 23.0707 17.4258 23.3497 17.4258C23.6288 17.4258 23.6462 17.4614 23.6462 17.604C23.6462 17.8713 23.0707 18.3703 23.0707 18.602C23.0707 18.8337 23.123 18.6911 23.1754 18.6911C23.3846 18.6911 23.7508 18.1386 24.0996 18.1386C24.6751 18.1386 24.2914 19.3862 24.6053 19.3862C24.9192 19.3862 24.7971 18.1565 25.2505 18.1565C25.7039 18.1565 25.9132 19.0119 26.1747 19.0119C26.4363 19.0119 26.2968 18.9584 26.2968 18.8872C26.2968 18.6555 25.9655 18.1743 25.9655 17.8713C25.9655 17.5683 26.0876 17.5862 26.2619 17.5862C26.5061 17.5862 26.8374 17.7466 27.0292 17.7466C27.221 17.7466 27.1513 17.7287 27.1513 17.6396C27.1513 17.3723 26.1922 17.0871 26.1922 16.7485C26.1922 16.4099 26.7153 16.4099 26.7153 16.2495H26.7328ZM29.2613 17.3723C29.2613 17.5683 29.9414 17.9961 30.2553 17.9961C30.5692 17.9961 30.4994 17.7466 30.4994 17.4792C30.4994 17.2119 30.3599 17.1406 30.0809 17.1406C29.8019 17.1406 29.2788 17.2475 29.2788 17.3723H29.2613ZM30.3774 19.5466C30.3774 18.8872 28.6335 17.6931 28.6161 17.1762C28.6161 17.1228 28.6335 17.0871 28.6859 17.0337C28.9823 16.7129 30.2379 16.4812 30.2379 16.196C30.2379 15.9109 29.9763 16.0535 29.8542 16.0535C28.8602 16.0535 27.3954 16.4277 27.3954 16.7842C27.3954 17.1406 28.7033 18.0673 28.7033 18.5307C28.7033 18.9941 28.6335 18.6911 28.5115 18.6911C28.1453 18.6911 27.3431 18.2456 26.9769 18.2456C26.6107 18.2456 26.7328 18.3703 26.7328 18.5485C26.7328 19.0832 27.3431 20.0812 27.3431 20.3842C27.3431 20.6872 27.3431 20.4555 27.2908 20.4555C27.099 20.4555 26.1747 19.3505 25.8609 19.3505C25.547 19.3505 25.7388 19.5109 25.7388 19.7604V20.1347C25.7388 20.3842 25.7388 20.5446 25.6167 20.5446C25.3377 20.5446 25.1982 19.7426 24.9366 19.7426C24.6751 19.7426 24.6053 21.1684 24.3263 21.1684C24.0473 21.1684 24.2914 19.6 23.9775 19.6C23.6636 19.6 23.2626 20.6515 23.0359 20.6515C22.8092 20.6515 22.9312 20.5624 22.9312 20.4911C22.9312 20.1703 23.1056 19.6535 23.1056 19.3505C23.1056 19.0476 23.0707 19.101 22.9312 19.101C22.5999 19.101 21.8675 19.6535 21.5885 19.6535C21.3095 19.6535 21.4838 19.6357 21.4838 19.5822C21.4838 19.3149 22.6522 18.4773 22.6522 18.103C22.6522 17.7287 21.0305 17.9782 21.0305 17.5683C21.0305 17.1584 22.1814 16.8555 22.1814 16.4812C22.1814 16.1069 20.8038 16 20.2806 16C19.7575 16 19.3041 16.0713 19.3041 16.2673C19.3041 16.5525 20.7514 16.6416 20.7514 16.8911C20.7514 17.1406 19.2518 17.7822 19.2518 18.1565C19.2518 18.5307 21.3618 18.1743 21.3618 18.5129C21.3618 18.8515 19.5133 20.509 19.5133 21.0436C19.5133 21.5783 19.6005 21.2218 19.7226 21.2218C20.2806 21.2218 21.728 20.1347 22.1291 20.1347C22.5301 20.1347 22.286 20.3129 22.286 20.4555C22.286 20.7406 22.1988 21.1862 22.1988 21.507C22.1988 21.8278 22.2686 21.9347 22.4778 21.9347C22.8789 21.9347 23.2451 21.2397 23.5067 21.2397C23.7683 21.2397 23.6462 23.2714 24.1693 23.2714C24.6925 23.2714 24.7971 21.0614 25.0761 21.0614C25.3551 21.0614 25.5818 21.703 25.8434 21.703C26.105 21.703 26.0178 20.5981 26.3666 20.5981C26.7153 20.5981 27.8139 21.9169 28.3022 21.9169C28.7905 21.9169 28.5115 21.7921 28.5115 21.6317C28.5115 21.0436 27.7093 19.7248 27.7093 19.3149C27.7093 18.905 27.7442 19.1723 27.8663 19.1723C28.2848 19.1723 29.5229 19.7604 30.0984 19.7604C30.6738 19.7604 30.4122 19.6535 30.4122 19.5109L30.3774 19.5466ZM20.5422 18.905C20.5422 19.1188 19.7226 19.8674 19.4261 19.8674C19.1297 19.8674 19.2866 19.7426 19.2866 19.6179C19.2866 19.404 19.3913 19.0832 19.4959 18.9941C19.6354 18.8515 19.9667 18.798 20.2109 18.798C20.455 18.798 20.5422 18.8337 20.5422 18.9228V18.905ZM28.4592 20.0456C28.4592 20.4377 29.8019 22.309 30.0635 22.309C30.3251 22.309 30.4471 21.9169 30.4471 21.5961C30.4471 21.2753 30.4297 21.4179 30.3774 21.3466C30.1855 21.0793 28.8079 19.9743 28.5115 19.9743C28.215 19.9743 28.4592 20.0099 28.4592 20.0456Z" fill="white"/>
<path id="Vector_19" d="M45.7753 16.7024C45.7753 16.8628 45.8974 16.9697 46.0543 16.9697C46.2113 16.9697 46.3159 16.845 46.3159 16.7024C46.3159 16.5598 46.1938 16.4351 46.0543 16.4351C45.9148 16.4351 45.7753 16.5598 45.7753 16.7024ZM44.014 19.144C44.014 18.3598 42.183 18.1638 42.183 17.9856C42.183 17.8073 43.2119 17.5935 43.735 17.5935C42.9329 16.542 41.7819 16.6489 41.7819 16.4529C41.7819 16.2568 42.6364 16.1143 43.4386 16.1143C44.2407 16.1143 44.729 16.2747 44.729 16.7915C44.729 17.3083 44.5023 17.3796 44.5023 17.8252C44.5023 18.2707 44.6244 18.2707 44.9383 18.2707C45.2522 18.2707 45.3568 17.9143 45.3568 17.5222C45.3568 17.1301 45.3045 16.9697 45.3045 16.8093C45.3045 16.3459 45.6184 16.043 46.0543 16.043C46.4903 16.043 46.5077 16.2034 47.0483 16.2034C46.7519 16.3816 46.6472 16.7024 46.6472 16.8628C46.6472 17.3261 46.9437 17.6469 46.9437 18.5915C46.9437 20.3381 45.3568 20.944 43.4037 20.944C41.4506 20.944 42.2877 20.9084 41.7296 20.8192C41.6424 20.8192 41.625 20.7836 41.625 20.7301C41.625 20.5876 42.3923 20.5163 42.3923 19.8034C42.3923 19.0905 42.3051 19.2687 42.3051 19.1618C42.3051 19.0549 42.34 19.0727 42.3923 19.0727C42.5492 19.0727 42.8806 19.7143 43.4735 19.7143C44.0664 19.7143 44.0315 19.6608 44.0315 19.144H44.014ZM45.8276 18.039C45.8276 19.0192 45.1301 19.7678 43.8571 19.9816C43.9966 19.9816 44.1361 19.9816 44.2582 19.9816C45.7404 19.9816 46.281 19.3044 46.281 18.7341C46.281 18.1638 46.1066 18.1281 45.8276 18.039Z" fill="white"/>
<path id="Vector_20" d="M45.113 32.2169C45.2874 31.6644 45.4967 31.2723 45.8629 30.6842C45.5141 30.506 44.5725 30.0961 44.5725 29.4545C44.5725 28.8129 45.4967 28.1 45.6885 28.1C45.8803 28.1 45.7931 28.1713 45.7931 28.3139C45.7931 28.7059 45.6013 29.3475 45.6013 29.6861C45.6013 30.0248 45.7931 30.2921 45.9675 30.2921C46.1419 30.2921 46.6651 29.6327 46.6651 28.9733C46.6651 27.797 45.6536 27.4584 45.3572 27.4584C45.0607 27.4584 44.5376 27.9396 43.2995 27.9396C40.9802 27.9396 40.457 25.5871 40.457 24.5712C40.457 23.5554 40.457 24.5178 40.4745 24.5178C40.5268 24.5178 40.7535 24.8029 41.4859 24.8029C42.2183 24.8029 42.2009 24.696 42.7589 24.696C44.0493 24.696 44.6248 25.6049 45.4269 26.7812C45.9152 27.0841 47.0661 27.5832 47.0661 28.9911C47.0661 30.399 45.7757 30.9159 45.4793 32.2347C45.9675 32.1812 46.264 31.2723 46.7697 31.2723C47.2754 31.2723 47.1533 31.4862 47.1533 31.807C47.1533 32.2882 46.8918 33.0189 46.3686 33.4644C46.3686 33.4288 46.3686 33.3575 46.3686 33.304C46.3686 33.001 46.2465 32.5555 45.8978 32.5555C45.3572 32.5555 45.1828 33.1436 44.8864 33.6426C44.5725 32.5198 44.1539 31.504 43.4041 30.8802C42.6368 30.2565 41.3289 30.5951 41.3289 29.4545C41.3289 28.3139 41.5208 28.7059 41.5208 28.3495C41.5208 27.9931 41.5033 28.1178 41.4336 28.0287C42.4624 28.4208 42.0962 29.1337 42.7414 29.8644C43.1425 30.3277 44.2411 30.7733 44.8689 32.6802C44.8689 32.6268 44.8864 32.4842 44.8864 32.3773C44.8864 30.7376 42.7763 29.1515 42.6019 28.4921C43.8226 28.6347 44.0493 28.9376 44.6248 30.5951C44.7468 30.9337 45.1305 31.7891 45.1305 32.199L45.113 32.2169ZM44.834 26.8703C44.834 26.6386 44.2586 26.6208 44.2063 25.9614C44.2063 25.8544 44.1714 25.694 44.0493 25.694C43.8575 25.694 44.0144 26.3 43.7877 26.3C43.2995 26.3 43.1251 25.3019 42.9507 25.3019C42.7763 25.3019 42.8635 25.3376 42.8635 25.4623C42.8635 25.5871 42.8809 25.6584 42.8809 25.801C42.8809 25.9435 42.8461 26.0505 42.724 26.0505C42.4276 26.0505 42.166 25.3554 41.9218 25.3554C41.6777 25.3554 41.8172 25.3911 41.8172 25.4445C41.8172 25.5693 42.0265 25.8188 42.0265 25.9435C42.0265 26.2109 41.3289 26.0683 41.3289 26.2822C41.3289 26.496 41.4336 26.4069 41.5556 26.4069C41.7823 26.4069 42.1311 26.3 42.3229 26.3C42.5147 26.3 42.6019 26.3178 42.6019 26.4604C42.6019 26.603 42.2183 26.8168 42.2183 26.9594C42.2183 27.102 42.288 27.0663 42.3404 27.0663C42.6368 27.0663 43.1425 26.5495 43.5087 26.5495C43.8749 26.5495 43.7354 26.5851 43.7354 26.6742C43.7354 26.8168 43.3692 27.0663 43.3692 27.2802C43.3692 27.494 43.4041 27.4049 43.4739 27.4049C43.6657 27.4049 43.9272 26.8881 44.2935 26.8881C44.6597 26.8881 44.6422 26.9416 44.7468 26.9416C44.8515 26.9416 44.8689 26.8881 44.8689 26.8525L44.834 26.8703Z" fill="white"/>
<path id="Vector_21" d="M36.7949 20.2773C36.9693 20.2773 37.0042 20.705 37.039 20.9545C37.0565 21.0793 37.0739 21.0971 37.1437 21.0971C37.2657 21.0971 37.475 20.5981 37.6145 20.5981C37.8238 20.5981 38.3643 21.1862 39.2886 21.1862C40.5964 21.1862 41.8171 20.2416 41.8171 18.602C41.8171 16.9624 40.7011 16.0713 39.1839 16.0713C37.6668 16.0713 37.9284 16.4277 37.6494 16.4277C37.475 16.4277 37.2134 16 37.0913 16C36.9693 16 36.9867 16.1069 36.9867 16.303C36.9867 16.499 36.9867 16.802 36.8647 16.802C36.6031 16.802 35.6091 16.0356 35.6091 16.3208C35.6091 16.6059 36.2717 17.3366 36.2717 17.5505C36.2717 17.7644 35.6091 17.9426 35.6091 18.0673C35.6091 18.3169 36.3066 18.3525 36.3066 18.6555C36.3066 18.9584 35.5742 19.208 35.5742 19.4396C35.5742 19.6713 36.3066 19.4931 36.3066 19.7248C36.3066 19.9565 35.766 20.7228 35.766 20.9545C35.766 21.1862 35.766 21.008 35.8184 21.008C36.0276 21.008 36.638 20.2951 36.7949 20.2951V20.2773ZM37.1088 18.4773C37.1088 18.3525 36.6903 18.1208 36.6903 17.9961C36.6903 17.8713 36.7077 17.9604 36.7426 17.9604C36.8647 17.9604 37.0739 17.9961 37.2309 17.9961C37.3878 17.9961 37.3878 17.3723 37.4924 17.3723C37.5971 17.3723 37.7017 17.9604 37.8238 17.9604C37.9458 17.9604 38.2248 17.8 38.3295 17.8C38.4341 17.8 38.3643 17.8 38.3643 17.8357C38.3643 17.9069 38.0853 18.2099 38.0853 18.299C38.0853 18.3881 38.6957 18.5129 38.6957 18.602C38.6957 18.6911 38.0853 18.7089 38.0853 18.798C38.0853 18.8872 38.312 19.1901 38.312 19.2792C38.312 19.3683 38.312 19.3149 38.2772 19.3149C38.19 19.3149 37.8586 19.1545 37.754 19.1545C37.6494 19.1545 37.4401 19.6 37.3529 19.6C37.2657 19.6 37.3006 19.5644 37.3006 19.4931V19.0476C37.2832 19.0119 37.2657 18.9584 37.196 18.9584C37.0565 18.9584 36.8123 18.9584 36.7426 18.9584C36.6728 18.9584 36.6728 18.9584 36.6728 18.9228C36.6728 18.8337 37.1088 18.5307 37.1088 18.4416V18.4773ZM39.2188 20.5624C38.469 20.5624 37.9633 20.1703 37.9633 19.9743C37.9633 19.7783 38.033 19.8139 38.1202 19.8139C38.3643 19.8139 38.8701 20.1882 39.0444 20.1882C39.2188 20.1882 39.1142 20.1703 39.1142 20.099C39.1142 19.903 38.9398 19.5644 38.9398 19.404C38.9398 19.2436 38.9747 19.3327 39.0444 19.3327C39.3409 19.3327 39.7594 19.4575 40.0035 19.4575C40.2477 19.4575 40.0907 19.404 40.0907 19.3683C40.0907 19.1188 39.3932 18.6555 39.3932 18.5129C39.3932 18.3703 40.2651 18.1743 40.2651 17.9782C40.2651 17.7822 39.0793 17.9069 39.0793 17.6931C39.0793 17.4792 39.306 17.2832 39.306 17.1584C39.306 17.0337 39.2711 17.0871 39.1839 17.0871C39.0968 17.0871 38.5736 17.301 38.3469 17.301C38.1202 17.301 38.1028 17.2832 38.1028 17.1228C38.1028 16.8733 38.5213 16.5881 39.1839 16.5881C40.2477 16.5881 40.8929 17.3366 40.8929 18.5842C40.8929 19.8317 39.8117 20.5624 39.2188 20.5624Z" fill="white"/>
<path id="Vector_22" d="M31.9124 39.6301C31.9124 39.737 31.8775 39.844 31.7904 39.9509C31.6683 39.737 31.337 39.6123 31.18 39.6123C30.064 39.6123 30.4825 41.2519 29.3141 41.2519C28.1458 41.2519 28.7735 41.1806 28.5992 41.1806C28.4248 41.1806 28.4771 41.2163 28.4771 41.2876C28.4771 41.5727 28.8782 42.2856 29.9942 42.2856C31.1103 42.2856 32.174 41.5905 32.174 40.7351C32.174 39.8796 32.1391 40.4321 32.0694 40.2895C32.1042 40.2182 32.2263 40.1826 32.3135 40.1826C32.4879 40.1826 32.5925 40.3786 32.7495 40.3786C32.9064 40.3786 33.0459 40.2361 33.0459 40.0757C33.0459 39.9153 32.9762 39.8262 32.8367 39.7727C32.9238 39.7014 32.9936 39.5945 32.9936 39.4697C32.9936 39.2915 32.8715 39.1133 32.6448 39.1133C32.4181 39.1133 32.4879 39.1489 32.4007 39.2202C32.3833 39.0242 32.2786 38.8281 32.0694 38.8281C31.8601 38.8281 31.7904 38.9529 31.7904 39.1311C31.7904 39.3093 31.9124 39.4519 31.9124 39.6301Z" fill="white"/>
<path id="Vector_23" d="M29.0174 40.0383C28.686 40.0383 28.2152 39.6818 28.2152 39.4858C28.2152 39.2897 28.3721 39.2363 28.4768 39.2363C28.7558 39.2363 29.2266 39.5749 29.2266 39.86C29.2266 40.1452 29.1743 40.0383 29.0174 40.0383ZM26.018 37.5788C26.8725 37.7927 27.3084 38.2739 27.3956 38.8264C27.4828 39.361 27.5874 39.8066 27.7967 40.0204C28.0583 40.3234 28.5988 40.6086 29.0522 40.6086C29.5056 40.6086 29.7498 40.4838 29.7498 40.1096C29.7498 39.7353 29.2266 38.8264 28.4419 38.8264C27.6572 38.8264 28.2675 38.8264 28.1629 38.8264C28.0583 38.8264 27.9188 38.8086 27.8316 38.7194C27.6572 38.559 27.6049 37.7392 27.291 37.2402C26.9422 36.6877 26.5411 36.5273 26.018 36.5273C25.4948 36.5273 25.2158 36.7412 25.2158 37.0442C25.2158 37.3472 25.3204 37.365 26.0005 37.5432L26.018 37.5788Z" fill="white"/>
<path id="Vector_24" d="M31.4242 36.225C31.4242 35.726 30.4128 35.726 30.4128 34.9774C30.4128 34.2289 30.5348 34.4784 30.7615 34.122C30.8662 34.6923 31.0928 34.9953 31.5637 35.1735C32.5228 35.5299 32.6449 36.0824 32.6449 36.6705C32.6449 37.6685 31.9648 38.8983 30.2209 38.8983C28.4771 38.8983 27.8145 37.6151 27.8145 36.5458C27.8145 35.4764 27.8842 35.922 28.076 35.922C28.2678 35.922 28.2853 36.0646 28.4248 36.1893C28.9131 36.6883 29.4362 36.8131 30.2035 36.8131C30.9708 36.8131 31.4067 36.5279 31.4067 36.225H31.4242ZM31.4591 37.0091C31.0928 37.1874 30.9359 37.1517 30.9359 37.5438C30.9359 37.9359 30.901 37.8646 30.901 37.9715C30.901 38.0784 30.9185 38.1854 31.0754 38.1854C31.4591 38.1854 32.0694 37.5081 32.0694 36.9378C32.0694 36.3675 31.9822 36.724 31.8776 36.724C31.7729 36.724 31.7032 36.9022 31.4416 37.027L31.4591 37.0091ZM28.0237 31.4487C28.0237 30.7358 29.6629 30.3615 29.6629 29.5061C29.6629 28.6506 29.6106 29.114 29.506 28.918C30.0814 29.2388 30.4999 29.7734 30.4999 30.219C30.4999 30.9853 29.7327 31.3239 29.7327 31.8051C29.7327 32.2863 30.5697 32.4467 30.5697 33.1239C30.5697 33.8012 29.785 34.3358 29.785 35.0665C29.785 35.7972 30.1686 36.0824 30.7615 36.1715C30.5697 36.2071 30.3953 36.2428 30.2209 36.2428C29.1398 36.2428 28.0063 35.3339 28.0063 34.2289C28.0063 33.1239 28.233 33.2131 28.5817 32.8744C28.8782 33.1418 29.1921 33.32 29.3839 33.32C29.5757 33.32 29.628 33.2309 29.628 33.1061C29.628 32.6962 28.0412 32.322 28.0412 31.4487H28.0237Z" fill="white"/>
<path id="Vector_25" d="M21.764 36.9031C21.8163 37.2773 22.1477 37.5625 22.5488 37.5268C22.6883 37.5268 22.8103 37.4734 22.8975 37.4199C22.9847 37.7763 23.2812 38.008 23.6648 37.9546C24.0659 37.9011 24.3275 37.5803 24.2926 37.1704C24.2926 37.0635 24.2577 36.9922 24.2228 36.9209C24.2228 36.9209 24.2751 36.9209 24.31 36.9209C24.6937 36.8496 24.9552 36.5288 24.9378 36.1367C24.9029 35.7446 24.5542 35.4417 24.188 35.4951C24.0484 35.513 23.9264 35.5664 23.8392 35.6377C23.7346 35.2991 23.4381 35.0139 23.0196 35.0852C22.6359 35.1565 22.3918 35.4773 22.4267 35.8872C22.4267 35.9585 22.4441 36.0298 22.479 36.1011C22.479 36.1011 22.4093 36.1011 22.3744 36.1011C22.0605 36.1546 21.7117 36.4753 21.764 36.9031ZM23.7869 36.4753C23.8218 36.707 23.6474 36.9209 23.4207 36.9387C23.194 36.9565 22.9847 36.7961 22.9673 36.5645C22.9324 36.3328 23.1068 36.1189 23.3335 36.1011C23.5602 36.0833 23.7694 36.2437 23.7869 36.4753Z" fill="white"/>
</g>
<path id="Vector_26" d="M60.8604 55.9993V16.0781" stroke="white" stroke-width="1.06621"/>
<g id="Group_2">
<path id="Vector_27" d="M72.8579 45.6094V51.0985H71.707L69.2656 47.4272V51.0985H68.167V45.6094H69.3354L71.7767 49.2807V45.6094H72.8579Z" fill="white"/>
<path id="Vector_28" d="M75.9966 50.9008C75.6653 50.7226 75.4037 50.4909 75.2293 50.1701C75.055 49.8493 74.9678 49.475 74.9678 49.0295V45.5898H76.1187V48.8869C76.1187 49.2612 76.2059 49.5641 76.3977 49.7602C76.5895 49.9562 76.8511 50.0453 77.1824 50.0453C77.5138 50.0453 77.7753 49.9562 77.9672 49.7602C78.159 49.5641 78.2636 49.279 78.2636 48.8869V45.5898H79.3971V49.0295C79.3971 49.475 79.3099 49.8493 79.1181 50.1701C78.9437 50.4909 78.6821 50.7404 78.3508 50.9008C78.0195 51.079 77.6358 51.1503 77.1824 51.1503C76.729 51.1503 76.3454 51.0612 76.0141 50.9008H75.9966Z" fill="white"/>
<path id="Vector_29" d="M84.9427 46.6252H83.565V51.0985H82.4141V46.6252H81.019V45.6094H84.9427V46.6252Z" fill="white"/>
<path id="Vector_30" d="M88.3076 49.279H87.7496V51.079H86.5986V45.5898H88.4122C88.8307 45.5898 89.1795 45.6611 89.4759 45.8215C89.7724 45.9819 89.9991 46.178 90.156 46.4453C90.313 46.7126 90.3827 47.0156 90.3827 47.3364C90.3827 47.6572 90.2955 48.0314 90.1212 48.3166C89.9468 48.6196 89.7026 48.8513 89.3888 49.0117L90.8361 51.0612H89.4934L88.3076 49.2612V49.279ZM87.7496 48.3522H88.2204C88.4994 48.3522 88.7435 48.281 88.9179 48.1206C89.0923 47.9602 89.1795 47.7463 89.1795 47.4433C89.1795 47.1404 89.0923 46.9265 88.9179 46.7839C88.7435 46.6413 88.5168 46.5522 88.2204 46.5522H87.7496V48.3522Z" fill="white"/>
<path id="Vector_31" d="M93.5225 45.6094V51.0985H92.3716V45.6094H93.5225Z" fill="white"/>
<path id="Vector_32" d="M99.1199 46.6252H97.7423V51.0985H96.5914V46.6252H95.1963V45.6094H99.1199V46.6252Z" fill="white"/>
<path id="Vector_33" d="M101.927 45.6094V51.0985H100.776V45.6094H101.927Z" fill="white"/>
<path id="Vector_34" d="M105.172 50.8109C104.753 50.5793 104.404 50.2406 104.16 49.8129C103.916 49.3852 103.794 48.8862 103.794 48.3337C103.794 47.7812 103.916 47.2822 104.16 46.8545C104.404 46.4267 104.736 46.0881 105.172 45.8564C105.59 45.6248 106.078 45.5 106.619 45.5C107.16 45.5 107.63 45.6248 108.066 45.8564C108.502 46.0881 108.834 46.4267 109.078 46.8366C109.322 47.2644 109.444 47.7456 109.444 48.298C109.444 48.8505 109.322 49.3317 109.078 49.7773C108.834 50.205 108.502 50.5436 108.066 50.7753C107.63 51.007 107.142 51.1317 106.619 51.1317C106.096 51.1317 105.608 51.007 105.189 50.7753L105.172 50.8109ZM107.456 49.8307C107.7 49.6882 107.892 49.4743 108.031 49.2248C108.171 48.9753 108.241 48.6723 108.241 48.3337C108.241 47.9951 108.171 47.7099 108.031 47.4426C107.892 47.1753 107.7 46.9792 107.456 46.8366C107.212 46.6941 106.933 46.6228 106.619 46.6228C106.305 46.6228 106.026 46.6941 105.782 46.8366C105.538 46.9792 105.346 47.1931 105.206 47.4426C105.067 47.6921 104.997 47.9951 104.997 48.3337C104.997 48.6723 105.067 48.9575 105.206 49.2248C105.346 49.4921 105.538 49.6882 105.782 49.8307C106.026 49.9733 106.305 50.0446 106.619 50.0446C106.933 50.0446 107.212 49.9733 107.456 49.8307Z" fill="white"/>
<path id="Vector_35" d="M116 45.6094V51.0985H114.85L112.408 47.4272V51.0985H111.31V45.6094H112.478L114.919 49.2807V45.6094H116Z" fill="white"/>
</g>
<g id="Group_3">
<path id="Vector_36" opacity="0.2" d="M91.9007 37.4534C95.3774 37.4534 98.1959 34.5729 98.1959 31.0197C98.1959 27.4664 95.3774 24.5859 91.9007 24.5859C88.4239 24.5859 85.6055 27.4664 85.6055 31.0197C85.6055 34.5729 88.4239 37.4534 91.9007 37.4534Z" fill="white"/>
<path id="Vector_37" d="M91.9002 19.3984C85.7793 19.3984 80.792 24.4955 80.792 30.751C80.792 37.0065 85.3957 41.6937 91.1678 42.0679C91.1678 42.0679 91.2724 42.0679 91.3421 42.0679V41.6759V38.3966V38.3253C91.3421 37.9511 91.3247 37.5946 91.2898 37.2382C91.2898 37.2382 91.2898 37.2026 91.2898 37.1847C92.092 36.1867 92.371 34.7788 92.0222 33.4421C91.6735 32.1233 90.7841 31.1075 89.6332 30.7332C89.3367 30.6263 89.0229 30.555 88.709 30.4659C87.7673 30.2164 86.8779 29.9847 86.3025 29.2718C86.1979 29.1292 86.006 29.0936 85.8491 29.147C85.4654 29.3074 85.448 30.3233 85.5178 31.1431C85.6398 32.658 86.3548 36.2402 90.54 37.3808C90.5749 37.7016 90.5923 38.058 90.5923 38.3966V41.2838C85.4829 40.6244 81.5244 36.1511 81.5244 30.751C81.5244 25.351 86.1804 20.1291 91.9176 20.1291C97.6548 20.1291 102.311 24.8876 102.311 30.751C102.311 36.6144 98.4744 40.5174 93.4173 41.266V30.8401C93.4696 30.3411 93.5568 29.8777 93.8881 29.5035C93.8881 29.5035 93.8881 29.5035 93.9056 29.4857C93.9753 29.4322 94.0451 29.3609 94.0974 29.3074C94.1148 29.3074 94.1323 29.2718 94.1497 29.2718C94.4462 29.0579 94.4985 28.6837 94.5508 28.3451C94.6903 27.2223 94.0974 23.2658 94.08 23.0876C94.0625 23.0341 93.9928 22.945 93.8533 22.9806C93.8533 23.4262 93.8533 23.8717 93.8533 24.2995C93.8533 24.8163 93.8533 25.3331 93.8184 25.8322C93.8184 25.9391 93.8184 26.349 93.8184 26.4025C93.8184 26.5985 93.8009 26.7411 93.5917 26.7411C93.5045 26.7411 93.4347 26.7054 93.3999 26.6698C93.3475 26.5629 93.365 26.3846 93.3475 26.2421C93.3475 26.1173 93.3475 26.0104 93.3301 25.8856C93.3301 25.8678 93.3301 25.85 93.3301 25.8322C93.2778 25.1015 93.2429 24.3708 93.1732 23.6222C93.1732 23.4975 93.1383 23.1945 93.1209 23.0163C93.1209 22.945 92.9639 22.945 92.9639 23.0163C92.9639 23.1767 92.929 23.4797 92.9116 23.6222C92.8593 24.3529 92.807 25.0836 92.7546 25.8322C92.7546 25.85 92.7546 25.8678 92.7546 25.8856C92.7546 26.0104 92.7546 26.1173 92.7372 26.2421C92.7372 26.3668 92.7372 26.545 92.6849 26.6698C92.65 26.7233 92.5803 26.7411 92.4931 26.7411C92.2838 26.7411 92.2664 26.5807 92.2664 26.4025C92.2664 26.3312 92.2664 25.9391 92.2664 25.8322C92.2489 25.3153 92.2489 24.7985 92.2315 24.2995C92.2315 23.8717 92.2315 23.4262 92.2315 22.9806C92.0746 22.9628 92.0048 23.0519 91.9874 23.0876C91.9874 23.2123 91.377 27.2223 91.5165 28.3451C91.5514 28.6837 91.6212 29.0579 91.9176 29.2718C91.935 29.2718 91.9525 29.3074 91.9699 29.3074C92.0222 29.3787 92.092 29.4322 92.1617 29.4857C92.1617 29.4857 92.1617 29.4857 92.1792 29.5035C92.5454 29.9134 92.6151 30.4124 92.6675 30.9649V31.0183V41.3372V42.0679C92.6675 42.0679 92.6675 42.0679 92.6849 42.0679C98.4918 41.6759 103.043 36.7035 103.043 30.751C103.043 24.7985 98.0559 19.3984 91.935 19.3984H91.9002ZM86.285 30.9827C86.442 31.2857 86.6513 31.5708 86.9303 31.8025C87.2267 32.052 87.558 32.2481 87.8719 32.4441C88.1509 32.6045 88.43 32.7649 88.6567 32.9609C88.7613 33.05 88.8659 33.1392 88.9531 33.2283C88.3253 33.3887 87.4185 33.4778 86.6687 32.9253C86.4246 32.2124 86.3199 31.5352 86.285 30.9827ZM88.0638 33.6738C88.43 33.6738 88.8136 33.6025 89.2147 33.4956C89.4763 33.7807 89.703 34.1194 89.9122 34.4758C89.982 34.5827 90.0343 34.7075 90.0866 34.8144C89.9994 34.8501 89.0926 35.2065 87.6452 34.6718C87.436 34.4223 87.2442 34.1372 87.0872 33.852C87.0175 33.7095 86.9303 33.5669 86.8779 33.4243C87.2267 33.6025 87.6452 33.6738 88.0638 33.6738ZM89.1449 35.2956C89.7727 35.2956 90.1389 35.1352 90.2087 35.0996C90.4005 35.5451 90.54 36.0441 90.6446 36.561C89.6158 36.2758 88.7613 35.7946 88.0812 35.153C88.4823 35.26 88.8485 35.2956 89.1449 35.2956ZM91.2724 33.6203C91.5165 34.5649 91.377 35.5451 90.9236 36.3115C90.819 35.8124 90.6795 35.3491 90.4877 34.9035C90.819 33.9233 90.7667 32.9966 90.6621 32.3728C90.9411 32.7292 91.1503 33.1392 91.2724 33.6203ZM89.5111 33.2461C89.5111 32.9966 89.4065 32.0342 88.9008 31.3213C89.0752 31.3748 89.2321 31.4104 89.3891 31.4639C89.703 31.5708 89.982 31.7312 90.2435 31.9451C90.3656 32.3728 90.5749 33.3887 90.2784 34.4936C90.2435 34.4223 90.2087 34.3689 90.1738 34.2976C89.982 33.9411 89.7553 33.6203 89.4937 33.3174V33.2283L89.5111 33.2461ZM88.3079 31.1609C88.9008 31.6421 89.0926 32.4976 89.1624 32.9788C89.0577 32.8718 88.9531 32.7827 88.8485 32.6936C88.5869 32.4797 88.3079 32.3193 88.0289 32.1411C87.715 31.9629 87.4011 31.7669 87.1221 31.5352C86.7559 31.2144 86.5117 30.7867 86.3374 30.3411C86.9303 30.7688 87.6278 30.9827 88.3253 31.1609H88.3079Z" fill="white"/>
</g>
</g>
</g>
</svg>
